ply
format ascii 1.0
comment VCGLIB generated
element vertex 8
property float x
property float y
property float z
element face 12
property list uchar int vertex_indices
property list uchar float texcoord
property uchar red
property uchar green
property uchar blue
property uchar alpha
end_header
-0.5 -0.5 0.5 
0.5 -0.5 0.5 
-0.5 0.5 0.5 
0.5 0.5 0.5 
-0.5 0.5 -0.5 
0.5 0.5 -0.5 
-0.5 -0.5 -0.5 
0.5 -0.5 -0.5 
3 0 1 2 6 0.375000 0.000000 0.625000 0.000000 0.375000 0.250000 192 192 192 255 
3 2 1 3 6 0.375000 0.250000 0.625000 0.000000 0.625000 0.250000 192 192 192 255 
3 2 3 4 6 0.375000 0.250000 0.625000 0.250000 0.375000 0.500000 192 192 192 255 
3 4 3 5 6 0.375000 0.500000 0.625000 0.250000 0.625000 0.500000 192 192 192 255 
3 4 5 6 6 0.375000 0.500000 0.625000 0.500000 0.375000 0.750000 192 192 192 255 
3 6 5 7 6 0.375000 0.750000 0.625000 0.500000 0.625000 0.750000 192 192 192 255 
3 6 7 0 6 0.375000 0.750000 0.625000 0.750000 0.375000 1.000000 192 192 192 255 
3 0 7 1 6 0.375000 1.000000 0.625000 0.750000 0.625000 1.000000 192 192 192 255 
3 1 7 3 6 0.625000 0.000000 0.875000 0.000000 0.625000 0.250000 192 192 192 255 
3 3 7 5 6 0.625000 0.250000 0.875000 0.000000 0.875000 0.250000 192 192 192 255 
3 6 0 4 6 0.125000 0.000000 0.375000 0.000000 0.125000 0.250000 192 192 192 255 
3 4 0 2 6 0.125000 0.250000 0.375000 0.000000 0.375000 0.250000 192 192 192 255 
